<svg width="18" height="18" viewBox="0 0 18 18" fill="none" xmlns="http://www.w3.org/2000/svg">
<path d="M3.75 7.44232C3.75 11.0812 6.93336 14.0904 8.34239 15.2441L8.34295 15.2446C8.54499 15.41 8.64605 15.4927 8.79664 15.5351C8.91379 15.5681 9.0861 15.5681 9.20325 15.5351C9.35398 15.4927 9.4553 15.4098 9.65772 15.2441C11.0668 14.0904 14.25 11.0812 14.25 7.4423C14.25 6.06521 13.6969 4.74454 12.7123 3.77079C11.7277 2.79705 10.3924 2.25 9.00003 2.25C7.60764 2.25 6.27226 2.79704 5.28769 3.77078C4.30312 4.74453 3.75 6.06524 3.75 7.44232Z" stroke="#C19570" stroke-width="1.5" stroke-linecap="round" stroke-linejoin="round"/>
<path d="M11.25 7.5C11.25 8.74264 10.2426 9.75 9 9.75C7.75736 9.75 6.75 8.74264 6.75 7.5C6.75 6.25736 7.75736 5.25 9 5.25C10.2426 5.25 11.25 6.25736 11.25 7.5Z" stroke="#C19570" stroke-width="1.5"/>
</svg>
