<svg width="24" height="24" viewBox="0 0 24 24" fill="none" xmlns="http://www.w3.org/2000/svg">
<path d="M2.88411 11.0165C2.88411 11.0165 11.0664 7.66872 13.9041 6.48997C14.9919 6.01847 18.681 4.5096 18.681 4.5096C18.681 4.5096 20.3836 3.8496 20.2417 5.4526C20.1944 6.11272 19.816 8.4231 19.4376 10.9221C18.8701 14.4585 18.2552 18.3247 18.2552 18.3247C18.2552 18.3247 18.1607 19.4092 17.3567 19.5978C16.5526 19.7865 15.2284 18.9377 14.9919 18.7491C14.8027 18.6076 11.4447 16.4858 10.2151 15.4486C9.88399 15.1657 9.50561 14.5998 10.2624 13.9397C11.965 12.3838 13.9987 10.4506 15.2284 9.22472C15.7959 8.65885 16.3635 7.3386 13.9987 8.94172C10.6407 11.2521 7.32999 13.4211 7.32999 13.4211C7.32999 13.4211 6.57336 13.8926 5.15449 13.4682C3.73561 13.0438 2.08024 12.4781 2.08024 12.4781C2.08024 12.4781 0.945236 11.7707 2.88436 11.0165H2.88411Z" stroke="white" stroke-width="1.5"/>
</svg>
