<svg width="24" height="24" viewBox="0 0 24 24" fill="none" xmlns="http://www.w3.org/2000/svg">
<path fill-rule="evenodd" clip-rule="evenodd" d="M21.8409 16.5826C21.3748 15.6256 20.7607 14.7515 20.0222 13.9937C19.7709 13.6959 19.4762 13.4019 19.2461 13.1726L19.214 13.1405C19.0953 13.0221 18.9973 12.9238 18.9171 12.8391C19.9269 11.4076 20.7912 9.87484 21.4964 8.26433L21.5249 8.19935L21.5448 8.13115C21.6375 7.81417 21.7442 7.21138 21.3666 6.66664C20.9763 6.10359 20.3513 6.00204 19.9328 6.00204H18.0073C17.606 5.98329 17.2085 6.09391 16.8717 6.31881C16.5324 6.54541 16.2729 6.87594 16.13 7.26231C15.7154 8.26919 15.1965 9.22692 14.5829 10.1195V7.81925C14.5829 7.52192 14.5555 7.02453 14.2432 6.60472C13.8692 6.10207 13.3285 6.00204 12.9531 6.00204H9.89787C9.50425 5.99277 9.12142 6.13624 8.82722 6.40408C8.52595 6.67836 8.34131 7.0615 8.31247 7.47224L8.30975 7.51115V7.55016C8.30975 7.97423 8.47459 8.28704 8.60628 8.48377C8.66524 8.57185 8.72831 8.65203 8.76814 8.70266L8.77734 8.71435C8.81981 8.76835 8.84817 8.80439 8.87662 8.84385C8.95147 8.94764 9.05913 9.10767 9.08959 9.52176V10.8084C8.56288 9.92575 8.00725 8.75118 7.58918 7.49671L7.58276 7.47745L7.57565 7.45846C7.47141 7.18014 7.30422 6.77518 6.96936 6.46528C6.57817 6.10326 6.11548 6.00204 5.69468 6.00204H3.74105C3.31535 6.00204 2.80214 6.10357 2.41921 6.51536C2.04265 6.92031 2 7.40554 2 7.66353V7.77982L2.02403 7.8935C2.56515 10.4539 3.68012 12.8515 5.28136 14.899C6.00732 16.0661 6.99101 17.0443 8.15417 17.7552C9.3359 18.4776 10.6691 18.9034 12.0438 18.9976L12.0797 19H12.1156C12.7376 19 13.386 18.9453 13.8735 18.6141C14.5313 18.1673 14.5829 17.4811 14.5829 17.1391V16.1451C14.7517 16.2842 14.9611 16.4715 15.2175 16.7231C15.5275 17.0393 15.7742 17.3133 15.9859 17.5525L16.0988 17.6806L16.0995 17.6813C16.2639 17.8678 16.4256 18.0515 16.5729 18.2025C16.7581 18.3922 16.9864 18.6013 17.2733 18.7558C17.584 18.923 17.9102 18.9987 18.2566 18.9987H20.2116C20.6234 18.9987 21.2141 18.8994 21.6294 18.4085C22.082 17.8736 22.0475 17.218 21.9052 16.7468L21.8795 16.6621L21.8409 16.5826ZM16.9402 16.6748C16.7201 16.4261 16.4548 16.1313 16.1194 15.7895L16.1166 15.7867C14.9546 14.6446 14.4116 14.4456 14.0278 14.4456C13.8236 14.4456 13.5976 14.469 13.451 14.6552C13.3818 14.743 13.3454 14.8491 13.325 14.9596C13.3046 15.0699 13.2976 15.1994 13.2976 15.347V17.1391C13.2976 17.3616 13.2617 17.4551 13.1608 17.5238C13.0262 17.6151 12.7388 17.6892 12.1228 17.6897C10.9537 17.6085 9.82018 17.2459 8.81513 16.6316C7.80803 16.016 6.9588 15.1653 6.33738 14.1496L6.33062 14.1386L6.32262 14.1284C4.83057 12.2352 3.79089 10.0144 3.28557 7.64141C3.28831 7.52702 3.31262 7.45915 3.35201 7.41679C3.3926 7.37314 3.49095 7.31231 3.74105 7.31231H5.69468C5.912 7.31231 6.02448 7.3605 6.10543 7.43541C6.1972 7.52034 6.27679 7.66457 6.37349 7.92209C6.853 9.35987 7.50145 10.7045 8.1155 11.6931C8.42242 12.1872 8.72448 12.5986 8.99662 12.8892C9.13247 13.0344 9.2657 13.1546 9.39284 13.2401C9.51591 13.3228 9.65543 13.3881 9.7989 13.3881C9.87461 13.3881 9.96316 13.3801 10.0484 13.3416C10.1402 13.3003 10.2113 13.2313 10.2616 13.1388C10.3505 12.9752 10.3749 12.733 10.3749 12.4157V9.47743L10.3745 9.47054C10.3301 8.75571 10.1184 8.35361 9.9122 8.06775C9.86702 8.00511 9.82247 7.94852 9.78348 7.899L9.77281 7.88544C9.73 7.83102 9.69594 7.78704 9.66795 7.74523C9.61667 7.66861 9.59679 7.6152 9.59516 7.55796C9.60185 7.49002 9.63327 7.42697 9.68337 7.38136C9.73537 7.33402 9.80342 7.30936 9.87309 7.31231H12.9531C13.1297 7.31231 13.1891 7.35623 13.219 7.39646C13.2613 7.45326 13.2976 7.57138 13.2976 7.81925V11.775C13.2976 12.2449 13.5101 12.563 13.8187 12.563C14.1738 12.563 14.4297 12.3434 14.8773 11.8871L14.8848 11.8795L14.8915 11.8711C15.8947 10.624 16.7147 9.23459 17.3249 7.74652L17.3288 7.73537C17.3747 7.60388 17.4615 7.49131 17.5761 7.41482C17.6905 7.33835 17.8264 7.30216 17.963 7.31179L17.9705 7.31231H19.9328C20.2004 7.31231 20.2885 7.38174 20.3169 7.42281C20.3472 7.46649 20.3683 7.56012 20.3169 7.74374C19.6133 9.34786 18.7432 10.8705 17.7219 12.2861L17.7155 12.2961C17.6163 12.4507 17.5076 12.6217 17.4918 12.8181C17.475 13.029 17.5645 13.2207 17.7211 13.4261C17.8352 13.5981 18.0706 13.833 18.3094 14.0713L18.3319 14.0938C18.5823 14.3436 18.8535 14.6142 19.0712 14.8763L19.0771 14.8832L19.0834 14.8896C19.7325 15.5496 20.2722 16.3126 20.6815 17.1488C20.7469 17.3764 20.7069 17.4928 20.6561 17.5528C20.5967 17.623 20.4636 17.6884 20.2116 17.6884H18.2566C18.1039 17.6884 17.9861 17.6578 17.8735 17.5971C17.7562 17.534 17.6355 17.4335 17.4842 17.2785C17.3624 17.1536 17.2292 17.0025 17.0667 16.8182C17.0265 16.7726 16.9844 16.7247 16.9402 16.6748Z" fill="white"/>
</svg>
