<svg width="24" height="24" viewBox="0 0 24 24" fill="none" xmlns="http://www.w3.org/2000/svg">
<path d="M19.3096 4.61006C18.4843 3.77916 17.502 3.12052 16.4199 2.67245C15.3376 2.22437 14.177 1.99582 13.0056 2.00006C11.4397 2.00159 9.90148 2.41428 8.54526 3.19681C7.18905 3.97934 6.06238 5.10424 5.27806 6.45884C4.49373 7.81345 4.07932 9.35025 4.07628 10.9152C4.07325 12.4803 4.48172 14.0187 5.26079 15.3763L4 20.0001L8.72795 18.7626C10.0335 19.4884 11.5005 19.8753 12.9944 19.8876C15.3693 19.8877 17.648 18.9502 19.3346 17.2794C21.0212 15.6086 21.9792 13.3396 22 10.9663C21.9921 9.78203 21.7503 8.61095 21.2887 7.52022C20.827 6.42947 20.1544 5.44053 19.3096 4.61006ZM13.0056 18.3463C11.6747 18.3472 10.3681 17.9897 9.22327 17.3113L8.9531 17.1426L6.15009 17.8851L6.89306 15.1513L6.71295 14.8701C5.75525 13.3251 5.39783 11.4827 5.70839 9.69192C6.01895 7.9012 6.97592 6.28649 8.39801 5.15369C9.82011 4.02088 11.6085 3.44868 13.4245 3.54546C15.2405 3.64223 16.958 4.40128 18.2514 5.67881C19.6653 7.06052 20.4747 8.94526 20.5028 10.9213C20.485 12.8967 19.6872 14.7851 18.2832 16.1757C16.8792 17.5662 14.9824 18.3464 13.0056 18.3463ZM17.0694 12.7888C16.8443 12.6763 15.7523 12.1363 15.5497 12.0688C15.3471 12.0013 15.1895 11.9563 15.0432 12.1813C14.823 12.4829 14.5861 12.7721 14.334 13.0476C14.2101 13.2051 14.075 13.2163 13.8499 13.0476C12.5663 12.5406 11.4968 11.6069 10.8218 10.4038C10.5854 10.0101 11.0469 10.0326 11.4747 9.18882C11.5063 9.12796 11.5227 9.06046 11.5227 8.99194C11.5227 8.92343 11.5063 8.85593 11.4747 8.79507C11.4747 8.68256 10.9681 7.58006 10.788 7.14131C10.6079 6.70256 10.4278 6.77006 10.2814 6.75881H9.8424C9.72865 6.76055 9.61659 6.78655 9.5137 6.83505C9.41081 6.88355 9.31947 6.95344 9.24578 7.04006C8.99319 7.28551 8.79618 7.58222 8.66802 7.91018C8.53986 8.23814 8.48353 8.58974 8.50281 8.94132C8.5734 9.78293 8.89054 10.5851 9.41463 11.2476C10.374 12.6828 11.6887 13.8455 13.2308 14.6226C14.0396 15.0944 14.9795 15.2917 15.9099 15.1851C16.2197 15.1236 16.5132 14.9978 16.7711 14.8155C17.0291 14.6334 17.2458 14.3989 17.4071 14.1276C17.5566 13.7964 17.6037 13.4282 17.5422 13.0701C17.4409 12.9576 17.2946 12.9013 17.0694 12.7888Z" fill="white"/>
</svg>
