<svg width="24" height="24" viewBox="0 0 24 24" fill="none" xmlns="http://www.w3.org/2000/svg">
<path d="M18.3096 4.61006C17.4843 3.77916 16.502 3.12052 15.4199 2.67245C14.3376 2.22437 13.177 1.99582 12.0056 2.00006C10.4397 2.00159 8.90148 2.41428 7.54526 3.19681C6.18905 3.97934 5.06238 5.10424 4.27806 6.45884C3.49373 7.81345 3.07932 9.35025 3.07628 10.9152C3.07325 12.4803 3.48172 14.0187 4.26079 15.3763L3 20.0001L7.72795 18.7626C9.03349 19.4884 10.5005 19.8753 11.9944 19.8876C14.3693 19.8877 16.648 18.9502 18.3346 17.2794C20.0212 15.6086 20.9792 13.3396 21 10.9663C20.9921 9.78203 20.7503 8.61095 20.2887 7.52022C19.827 6.42947 19.1544 5.44053 18.3096 4.61006ZM12.0056 18.3463C10.6747 18.3472 9.36812 17.9897 8.22327 17.3113L7.9531 17.1426L5.15009 17.8851L5.89306 15.1513L5.71295 14.8701C4.75525 13.3251 4.39783 11.4827 4.70839 9.69192C5.01895 7.9012 5.97592 6.28649 7.39801 5.15369C8.82011 4.02088 10.6085 3.44868 12.4245 3.54546C14.2405 3.64223 15.958 4.40128 17.2514 5.67881C18.6653 7.06052 19.4747 8.94526 19.5028 10.9213C19.485 12.8967 18.6872 14.7851 17.2832 16.1757C15.8792 17.5662 13.9824 18.3464 12.0056 18.3463ZM16.0694 12.7888C15.8443 12.6763 14.7523 12.1363 14.5497 12.0688C14.3471 12.0013 14.1895 11.9563 14.0432 12.1813C13.823 12.4829 13.5861 12.7721 13.334 13.0476C13.2101 13.2051 13.075 13.2163 12.8499 13.0476C11.5663 12.5406 10.4968 11.6069 9.82176 10.4038C9.58537 10.0101 10.0469 10.0326 10.4747 9.18882C10.5063 9.12796 10.5227 9.06046 10.5227 8.99194C10.5227 8.92343 10.5063 8.85593 10.4747 8.79507C10.4747 8.68256 9.9681 7.58006 9.78799 7.14131C9.60788 6.70256 9.42777 6.77006 9.28143 6.75881H8.8424C8.72865 6.76055 8.61659 6.78655 8.5137 6.83505C8.41081 6.88355 8.31947 6.95344 8.24578 7.04006C7.99319 7.28551 7.79618 7.58222 7.66802 7.91018C7.53986 8.23814 7.48353 8.58974 7.50281 8.94132C7.5734 9.78293 7.89054 10.5851 8.41463 11.2476C9.37396 12.6828 10.6887 13.8455 12.2308 14.6226C13.0396 15.0944 13.9795 15.2917 14.9099 15.1851C15.2197 15.1236 15.5132 14.9978 15.7711 14.8155C16.0291 14.6334 16.2458 14.3989 16.4071 14.1276C16.5566 13.7964 16.6037 13.4282 16.5422 13.0701C16.4409 12.9576 16.2946 12.9013 16.0694 12.7888Z" fill="white"/>
</svg>
